<svg width="135" height="26" viewBox="0 0 135 26" fill="none" xmlns="http://www.w3.org/2000/svg">
<path fill-rule="evenodd" clip-rule="evenodd" d="M13.6321 0.692491L3.60805 4.03115C2.30582 4.46488 1.8661 4.72072 1.43336 5.08903C1.00062 5.45734 0.681158 5.90271 0.469883 6.43225C0.258607 6.96179 0.155518 7.4627 0.155518 8.84446V23.9194C0.155518 24.5912 0.224948 24.8348 0.355324 25.0804C0.485701 25.326 0.677022 25.5188 0.920805 25.6501C1.16459 25.7815 1.40639 25.8514 2.07322 25.8514H30.8991C31.5659 25.8514 31.8077 25.7815 32.0515 25.6501C32.2953 25.5188 32.4866 25.326 32.617 25.0804C32.7474 24.8348 32.8168 24.5912 32.8168 23.9194V8.81132C32.8168 7.43887 32.7156 6.94152 32.5077 6.41503C32.2997 5.88855 31.985 5.44498 31.5578 5.07637C31.1307 4.70776 30.6963 4.45038 29.4073 4.00621L19.8845 0.724837C18.5429 0.262525 18.0804 0.142417 17.5456 0.0622063C17.0108 -0.0180044 16.5132 -0.0205784 15.9777 0.054095C15.4421 0.128768 14.9784 0.244085 13.6321 0.692491ZM2.64875 23.3396H10.9175V10.6216C10.9175 10.0693 11.3652 9.62162 11.9175 9.62162H21.0549C21.6071 9.62162 22.0548 10.0693 22.0548 10.6216V23.3396H30.3236V8.81132C30.3236 7.8378 30.2885 7.5901 30.1911 7.34371C30.1326 7.19544 30.0562 7.08784 29.9359 6.98404C29.736 6.81153 29.5147 6.69789 28.6004 6.38283L19.0776 3.10146C17.9373 2.70852 17.5658 2.60472 17.1784 2.54662C16.8786 2.50164 16.6198 2.5003 16.3195 2.54217C15.9315 2.59626 15.559 2.69621 14.4147 3.07733L4.39066 6.41599C3.46807 6.72327 3.24479 6.83547 3.04236 7.00776C2.92041 7.11155 2.84277 7.2198 2.78323 7.36902C2.6844 7.61673 2.64875 7.86553 2.64875 8.84446V23.3396Z" fill="white"/>
<path fill-rule="evenodd" clip-rule="evenodd" d="M38.8825 9.01364C38.8825 8.72923 39.0117 8.58703 39.2701 8.58703H47.7621C47.9148 8.58703 48.0234 8.62998 48.088 8.7159C48.1526 8.80182 48.1849 8.90995 48.1849 9.04031V10.6046C48.1849 10.7112 48.1482 10.806 48.0748 10.889C48.0014 10.9719 47.8913 11.0134 47.7445 11.0134H41.4812V13.7153H46.3086C46.426 13.7035 46.52 13.7287 46.5905 13.7909C46.6609 13.8531 46.6962 13.9583 46.6962 14.1064V15.7151C46.6962 15.8217 46.6668 15.9166 46.6081 15.9995C46.5494 16.0825 46.4554 16.1239 46.3262 16.1239H41.4812V19.3591H47.9735C48.1379 19.3591 48.2466 19.3947 48.2994 19.4658C48.3523 19.5369 48.3787 19.6465 48.3787 19.7946V21.4122C48.3787 21.6611 48.2495 21.7855 47.9911 21.7855H39.2701C39.1644 21.7855 39.0733 21.7559 38.997 21.6966C38.9206 21.6374 38.8825 21.5426 38.8825 21.4122V9.01364ZM57.1438 18.8258C57.2437 18.7607 57.3273 18.7207 57.3949 18.7059C57.4624 18.691 57.5197 18.6836 57.5667 18.6836C57.6665 18.6896 57.7516 18.7429 57.8221 18.8436L58.0335 19.1369L58.659 20.0346C58.6884 20.0761 58.7118 20.119 58.7295 20.1635C58.7471 20.2079 58.7559 20.2479 58.7559 20.2835C58.7559 20.3783 58.7236 20.4627 58.659 20.5368C58.5944 20.6108 58.5092 20.6864 58.4035 20.7634C57.9043 21.1308 57.3655 21.427 56.787 21.6522C56.2086 21.8773 55.5729 21.9899 54.8799 21.9899C54.3572 21.9899 53.8507 21.9203 53.3603 21.7811C52.8699 21.6418 52.4118 21.4463 51.9861 21.1945C51.5603 20.9426 51.1712 20.6405 50.8189 20.2879C50.4665 19.9353 50.1626 19.5428 49.9071 19.1103C49.6516 18.6777 49.4549 18.2126 49.3169 17.7149C49.1789 17.2171 49.1099 16.6987 49.1099 16.1595C49.1099 15.6203 49.1789 15.1018 49.3169 14.6041C49.4549 14.1064 49.6516 13.6413 49.9071 13.2087C50.1626 12.7762 50.4665 12.3836 50.8189 12.0311C51.1712 11.6785 51.5603 11.3763 51.9861 11.1245C52.4118 10.8727 52.8699 10.6772 53.3603 10.5379C53.8507 10.3987 54.3572 10.329 54.8799 10.329C55.5317 10.329 56.1484 10.4298 56.7298 10.6312C57.3112 10.8327 57.828 11.1053 58.2802 11.4489L58.2714 11.44C58.3536 11.523 58.4344 11.5956 58.5136 11.6578C58.5929 11.72 58.6326 11.8163 58.6326 11.9466C58.6326 11.9822 58.6311 12.0237 58.6282 12.0711C58.6252 12.1185 58.6091 12.1629 58.5797 12.2044L57.8574 13.3154C57.7399 13.4931 57.6107 13.582 57.4698 13.582C57.3699 13.582 57.2583 13.5316 57.135 13.4309C56.8355 13.1761 56.4861 12.9687 56.0867 12.8088C55.6874 12.6488 55.2763 12.5688 54.8534 12.5688C54.3954 12.5688 53.9652 12.6651 53.5629 12.8576C53.1606 13.0502 52.8068 13.3109 52.5014 13.6398C52.196 13.9686 51.9552 14.3508 51.7791 14.7863C51.6029 15.2218 51.5148 15.6795 51.5148 16.1595C51.5148 16.6513 51.6029 17.1134 51.7791 17.546C51.9552 17.9785 52.1945 18.3548 52.497 18.6748C52.7994 18.9947 53.1533 19.248 53.5585 19.4347C53.9637 19.6213 54.3954 19.7146 54.8534 19.7146C55.3526 19.7146 55.7843 19.6272 56.1484 19.4524C56.5125 19.2776 56.8443 19.0688 57.1438 18.8258ZM59.5399 16.1595C59.5399 15.6203 59.6089 15.1004 59.7469 14.5997C59.8849 14.099 60.0802 13.6324 60.3327 13.1998C60.5853 12.7673 60.8877 12.3747 61.2401 12.0222C61.5924 11.6696 61.983 11.3674 62.4117 11.1156C62.8404 10.8638 63.2999 10.6683 63.7903 10.529C64.2807 10.3898 64.7931 10.3202 65.3275 10.3202C65.8561 10.3202 66.367 10.3898 66.8603 10.529C67.3536 10.6683 67.8132 10.8638 68.2389 11.1156C68.6647 11.3674 69.0538 11.6696 69.4062 12.0222C69.7585 12.3747 70.061 12.7673 70.3135 13.1998C70.566 13.6324 70.7613 14.099 70.8993 14.5997C71.0373 15.1004 71.1063 15.6203 71.1063 16.1595C71.1063 16.6987 71.0373 17.2171 70.8993 17.7149C70.7613 18.2126 70.566 18.6762 70.3135 19.1058C70.061 19.5354 69.7585 19.9279 69.4062 20.2835C69.0538 20.639 68.6647 20.9426 68.2389 21.1945C67.8132 21.4463 67.3536 21.6418 66.8603 21.7811C66.367 21.9203 65.8561 21.9899 65.3275 21.9899C64.7931 21.9899 64.2807 21.9203 63.7903 21.7811C63.2999 21.6418 62.8404 21.4463 62.4117 21.1945C61.983 20.9426 61.5924 20.639 61.2401 20.2835C60.8877 19.9279 60.5853 19.5354 60.3327 19.1058C60.0802 18.6762 59.8849 18.2126 59.7469 17.7149C59.6089 17.2171 59.5399 16.6987 59.5399 16.1595ZM62.0241 16.1595C62.0241 16.6335 62.1063 17.0823 62.2708 17.506C62.4352 17.9296 62.6642 18.2985 62.9579 18.6125C63.2515 18.9266 63.5995 19.1754 64.0018 19.3591C64.404 19.5428 64.843 19.6346 65.3187 19.6346C65.7827 19.6346 66.2128 19.5428 66.6093 19.3591C67.0057 19.1754 67.3478 18.9266 67.6355 18.6125C67.9233 18.2985 68.1479 17.9296 68.3094 17.506C68.4709 17.0823 68.5517 16.6335 68.5517 16.1595C68.5517 15.6914 68.4709 15.244 68.3094 14.8174C68.1479 14.3908 67.9233 14.016 67.6355 13.6931C67.3478 13.3702 67.0057 13.1124 66.6093 12.9199C66.2128 12.7273 65.7827 12.631 65.3187 12.631C64.843 12.631 64.404 12.7273 64.0018 12.9199C63.5995 13.1124 63.2515 13.3702 62.9579 13.6931C62.6642 14.016 62.4352 14.3908 62.2708 14.8174C62.1063 15.244 62.0241 15.6914 62.0241 16.1595ZM83.6711 9.54692C83.7416 9.58839 83.8003 9.63876 83.8473 9.69801C83.8943 9.75726 83.9177 9.82836 83.9177 9.91132C83.9177 9.9765 83.9001 10.0446 83.8649 10.1157L83.0104 11.5822C82.9106 11.7185 82.8049 11.7867 82.6933 11.7867C82.658 11.7867 82.6169 11.7793 82.5699 11.7644C82.523 11.7496 82.476 11.7274 82.429 11.6978C82.059 11.4311 81.6626 11.2238 81.2398 11.0756C80.8169 10.9275 80.3677 10.8534 79.892 10.8534C79.2929 10.8534 78.7438 10.9675 78.2447 11.1956C77.7455 11.4237 77.3138 11.7333 76.9497 12.1244C76.5856 12.5155 76.3022 12.9747 76.0996 13.502C75.897 14.0294 75.7957 14.5952 75.7957 15.1996C75.7957 15.7981 75.897 16.3595 76.0996 16.8838C76.3022 17.4082 76.5856 17.866 76.9497 18.257C77.3138 18.6481 77.7455 18.9562 78.2447 19.1814C78.7438 19.4065 79.2929 19.5191 79.892 19.5191C80.3677 19.5191 80.8213 19.445 81.253 19.2969C81.6846 19.1488 82.0825 18.9414 82.4466 18.6748C82.4936 18.6392 82.5421 18.6155 82.592 18.6037C82.6419 18.5918 82.6845 18.5829 82.7197 18.577C82.8195 18.577 82.9223 18.6422 83.028 18.7725L83.9001 20.2568C83.9354 20.3279 83.953 20.3931 83.953 20.4523C83.953 20.5353 83.928 20.6034 83.8781 20.6567C83.8282 20.7101 83.7709 20.7604 83.7063 20.8078C83.1543 21.1811 82.5597 21.47 81.9225 21.6744C81.2853 21.8788 80.6143 21.981 79.9096 21.981C79.2871 21.981 78.6895 21.901 78.1169 21.7411C77.5443 21.5811 77.0084 21.353 76.5093 21.0567C76.0101 20.7604 75.5564 20.4064 75.1482 19.9946C74.7401 19.5828 74.3892 19.1266 74.0956 18.6259C73.8019 18.1252 73.5758 17.586 73.4172 17.0083C73.2587 16.4306 73.1794 15.8277 73.1794 15.1996C73.1794 14.5715 73.2587 13.9686 73.4172 13.3909C73.5758 12.8132 73.8019 12.271 74.0956 11.7644C74.3892 11.2578 74.7401 10.7971 75.1482 10.3824C75.5564 9.96761 76.0101 9.61358 76.5093 9.32027C77.0084 9.02697 77.5443 8.79885 78.1169 8.63591C78.6895 8.47296 79.2871 8.39149 79.9096 8.39149C80.6084 8.39149 81.2721 8.49074 81.9005 8.68924C82.5288 8.88773 83.119 9.17362 83.6711 9.54692ZM96.6646 21.2611C96.6646 21.3678 96.6425 21.4552 96.5985 21.5233C96.5544 21.5914 96.4972 21.6448 96.4267 21.6833C96.3562 21.7218 96.2755 21.7485 96.1845 21.7633C96.0934 21.7781 95.998 21.7855 95.8982 21.7855H94.797C94.6091 21.7855 94.4784 21.7351 94.405 21.6344C94.3316 21.5337 94.2773 21.4063 94.242 21.2522L94.1892 20.4968C93.9836 20.7041 93.7561 20.8982 93.5065 21.0789C93.2569 21.2596 92.9882 21.4167 92.7004 21.55C92.4127 21.6833 92.1073 21.787 91.7843 21.861C91.4613 21.9351 91.1295 21.9721 90.7889 21.9721C90.2603 21.9721 89.7509 21.9025 89.2605 21.7633C88.7701 21.624 88.3106 21.4285 87.8818 21.1767C87.4531 20.9249 87.0641 20.6212 86.7146 20.2657C86.3652 19.9102 86.0657 19.5161 85.8161 19.0836C85.5665 18.651 85.3727 18.1859 85.2347 17.6882C85.0967 17.1905 85.0277 16.672 85.0277 16.1328C85.0277 15.5936 85.0967 15.0752 85.2347 14.5774C85.3727 14.0797 85.5665 13.6146 85.8161 13.1821C86.0657 12.7495 86.3652 12.357 86.7146 12.0044C87.0641 11.6519 87.4531 11.3497 87.8818 11.0978C88.3106 10.846 88.7701 10.6505 89.2605 10.5112C89.7509 10.372 90.2603 10.3024 90.7889 10.3024C91.1647 10.3024 91.523 10.3424 91.8636 10.4224C92.2042 10.5024 92.5228 10.6149 92.8194 10.7601C93.1159 10.9053 93.3905 11.0801 93.643 11.2845C93.8956 11.4889 94.1246 11.7126 94.3301 11.9555L94.4535 11.0045C94.4828 10.8979 94.5107 10.8105 94.5371 10.7423C94.5636 10.6742 94.5959 10.6194 94.634 10.5779C94.6722 10.5364 94.7207 10.5083 94.7794 10.4935C94.8381 10.4787 94.9115 10.4713 94.9996 10.4713H95.8805C95.9745 10.4713 96.0685 10.4801 96.1624 10.4979C96.2564 10.5157 96.3416 10.5438 96.4179 10.5824C96.4942 10.6209 96.5544 10.6742 96.5985 10.7423C96.6425 10.8105 96.6646 10.8949 96.6646 10.9956V21.2611ZM87.5031 16.1328C87.5031 16.6068 87.5853 17.0557 87.7497 17.4793C87.9142 17.903 88.1432 18.2748 88.4368 18.5948C88.7305 18.9147 89.0755 19.168 89.4719 19.3547C89.8683 19.5413 90.3014 19.6346 90.7713 19.6346C91.247 19.6346 91.6918 19.5413 92.1058 19.3547C92.5199 19.168 92.8796 18.9147 93.185 18.5948C93.4903 18.2748 93.7311 17.903 93.9073 17.4793C94.0835 17.0557 94.1716 16.6068 94.1716 16.1328C94.1716 15.6647 94.0835 15.2189 93.9073 14.7952C93.7311 14.3715 93.4903 13.9997 93.185 13.6798C92.8796 13.3598 92.5199 13.105 92.1058 12.9154C91.6918 12.7258 91.247 12.631 90.7713 12.631C90.3014 12.631 89.8683 12.7258 89.4719 12.9154C89.0755 13.105 88.7305 13.3598 88.4368 13.6798C88.1432 13.9997 87.9142 14.3715 87.7497 14.7952C87.5853 15.2189 87.5031 15.6647 87.5031 16.1328ZM100.726 21.2522C100.673 21.43 100.615 21.5633 100.554 21.6522C100.492 21.7411 100.373 21.7855 100.197 21.7855H98.8669C98.4969 21.7855 98.3119 21.6077 98.3119 21.2522V7.68046C98.3119 7.5264 98.3647 7.39901 98.4704 7.29828C98.5762 7.19755 98.6965 7.14719 98.8316 7.14719H100.285C100.461 7.14719 100.599 7.19904 100.699 7.30273C100.799 7.40642 100.849 7.53233 100.849 7.68046V11.76C101.272 11.3215 101.758 10.9719 102.307 10.7112C102.856 10.4505 103.486 10.3202 104.196 10.3202C104.989 10.3202 105.728 10.4727 106.412 10.7779C107.096 11.083 107.692 11.4993 108.2 12.0266C108.708 12.554 109.106 13.1717 109.394 13.8797C109.682 14.5878 109.825 15.3477 109.825 16.1595C109.825 16.9653 109.682 17.7223 109.394 18.4303C109.106 19.1384 108.708 19.7561 108.2 20.2835C107.692 20.8108 107.096 21.227 106.412 21.5322C105.728 21.8374 104.989 21.9899 104.196 21.9899C103.85 21.9899 103.518 21.9514 103.201 21.8744C102.884 21.7974 102.581 21.6922 102.294 21.5589C102.006 21.4255 101.737 21.267 101.488 21.0834C101.238 20.8997 101.01 20.7041 100.805 20.4968L100.726 21.2522ZM107.35 16.1595C107.35 15.6914 107.268 15.244 107.103 14.8174C106.939 14.3908 106.71 14.016 106.416 13.6931C106.123 13.3702 105.776 13.1124 105.377 12.9199C104.977 12.7273 104.546 12.631 104.082 12.631C103.612 12.631 103.17 12.7273 102.756 12.9199C102.342 13.1124 101.981 13.3702 101.673 13.6931C101.364 14.016 101.122 14.3908 100.946 14.8174C100.77 15.244 100.682 15.6914 100.682 16.1595V16.2217C100.687 16.6898 100.781 17.1297 100.963 17.5415C101.146 17.9534 101.389 18.3148 101.695 18.6259C102 18.9369 102.357 19.1828 102.765 19.3636C103.173 19.5443 103.612 19.6346 104.082 19.6346C104.546 19.6346 104.977 19.5428 105.377 19.3591C105.776 19.1754 106.123 18.9266 106.416 18.6125C106.71 18.2985 106.939 17.9296 107.103 17.506C107.268 17.0823 107.35 16.6335 107.35 16.1595ZM111.173 11.0401C111.173 10.886 111.217 10.7571 111.305 10.6535C111.393 10.5498 111.523 10.4979 111.693 10.4979H113.155C113.22 10.4979 113.286 10.5112 113.353 10.5379C113.421 10.5646 113.481 10.6031 113.534 10.6535C113.587 10.7038 113.631 10.7616 113.666 10.8268C113.701 10.8919 113.719 10.963 113.719 11.0401V21.2522C113.719 21.6077 113.534 21.7855 113.164 21.7855H111.702C111.349 21.7855 111.173 21.6077 111.173 21.2522V11.0401ZM111.173 7.11164C111.173 6.75612 111.346 6.57837 111.693 6.57837H113.173C113.337 6.57837 113.469 6.62281 113.569 6.71169C113.669 6.80057 113.719 6.93388 113.719 7.11164V8.43593C113.719 8.57221 113.672 8.70109 113.578 8.82255C113.484 8.94402 113.352 9.00476 113.182 9.00476H111.702C111.349 9.00476 111.173 8.81515 111.173 8.43593V7.11164ZM115.93 11.0223C115.93 10.9393 115.965 10.8505 116.036 10.7557C116.106 10.6609 116.174 10.6016 116.238 10.5779C116.285 10.5305 116.356 10.5053 116.45 10.5024C116.544 10.4994 116.632 10.4979 116.714 10.4979H117.604C117.774 10.4979 117.9 10.5542 117.983 10.6668C118.065 10.7794 118.121 10.9038 118.15 11.0401L118.247 11.9822C118.382 11.7807 118.548 11.5822 118.745 11.3867C118.941 11.1912 119.175 11.0164 119.445 10.8623C119.715 10.7083 120.023 10.5838 120.37 10.489C120.716 10.3942 121.107 10.3468 121.542 10.3468C122.235 10.3468 122.851 10.4727 123.391 10.7246C123.932 10.9764 124.387 11.3215 124.757 11.76C125.127 12.1985 125.407 12.714 125.598 13.3065C125.789 13.899 125.884 14.536 125.884 15.2174V21.1456C125.884 21.3589 125.835 21.5189 125.735 21.6255C125.635 21.7322 125.491 21.7855 125.303 21.7855H123.964C123.729 21.7855 123.572 21.7411 123.493 21.6522C123.413 21.5633 123.374 21.4063 123.374 21.1811V15.2618C123.374 14.9478 123.321 14.6411 123.215 14.3419C123.11 14.0427 122.955 13.7746 122.753 13.5376C122.55 13.3006 122.299 13.1109 122 12.9687C121.7 12.8265 121.354 12.7554 120.96 12.7554C120.69 12.7554 120.41 12.8102 120.119 12.9199C119.828 13.0295 119.562 13.185 119.322 13.3865C119.081 13.5879 118.881 13.8323 118.723 14.1197C118.564 14.4071 118.482 14.7315 118.476 15.0929V20.8523C118.476 20.9649 118.47 21.0774 118.458 21.19C118.447 21.3026 118.422 21.4033 118.383 21.4922C118.345 21.5811 118.291 21.6522 118.221 21.7055C118.15 21.7588 118.059 21.7855 117.947 21.7855H116.494C116.3 21.7855 116.158 21.7396 116.067 21.6477C115.976 21.5559 115.93 21.4241 115.93 21.2522V11.0223ZM128.439 18.6036C128.562 18.7992 128.718 18.968 128.906 19.1103C129.094 19.2525 129.286 19.3695 129.483 19.4613C129.68 19.5532 129.868 19.6198 130.047 19.6613C130.226 19.7028 130.368 19.7235 130.474 19.7235C130.638 19.7235 130.832 19.7057 131.055 19.6702C131.279 19.6346 131.489 19.5709 131.685 19.4791C131.882 19.3873 132.049 19.2628 132.187 19.1058C132.325 18.9488 132.394 18.7488 132.394 18.5059C132.394 18.2689 132.34 18.0763 132.231 17.9282C132.123 17.78 131.976 17.6571 131.791 17.5593C131.606 17.4616 131.395 17.3801 131.157 17.3149C130.919 17.2497 130.668 17.1786 130.404 17.1016C129.787 16.9357 129.261 16.7357 128.827 16.5017C128.392 16.2676 128.035 15.9995 127.756 15.6973C127.477 15.3951 127.273 15.0633 127.144 14.7019C127.015 14.3404 126.95 13.9464 126.95 13.5198C126.95 13.0398 127.044 12.6014 127.232 12.2044C127.42 11.8074 127.684 11.4667 128.025 11.1823C128.366 10.8979 128.775 10.6772 129.254 10.5201C129.733 10.3631 130.263 10.2846 130.844 10.2846C131.255 10.2846 131.622 10.3216 131.945 10.3957C132.268 10.4698 132.568 10.5809 132.844 10.729C133.12 10.8771 133.38 11.0638 133.623 11.2889C133.867 11.5141 134.115 11.7778 134.368 12.08C134.456 12.1866 134.5 12.2903 134.5 12.391C134.5 12.4977 134.441 12.5984 134.324 12.6932C134.236 12.7643 134.131 12.8532 134.011 12.9599C133.891 13.0665 133.772 13.1702 133.654 13.2709C133.537 13.3717 133.425 13.4576 133.319 13.5287C133.214 13.5998 133.126 13.6353 133.055 13.6353C132.926 13.6353 132.8 13.5583 132.676 13.4042C132.547 13.2502 132.418 13.1154 132.289 12.9998C132.16 12.8843 132.024 12.7895 131.884 12.7154C131.743 12.6414 131.59 12.5851 131.425 12.5466C131.261 12.5081 131.082 12.4888 130.888 12.4888C130.73 12.4888 130.564 12.5125 130.39 12.5599C130.217 12.6073 130.059 12.6784 129.915 12.7732C129.771 12.868 129.65 12.9821 129.553 13.1154C129.457 13.2487 129.408 13.3983 129.408 13.5642C129.408 13.7538 129.468 13.9153 129.589 14.0486C129.709 14.1819 129.862 14.2975 130.047 14.3952C130.232 14.493 130.433 14.5745 130.65 14.6397C130.868 14.7048 131.07 14.7641 131.258 14.8174C131.798 14.9715 132.295 15.1492 132.747 15.3507C133.199 15.5521 133.588 15.7966 133.914 16.0839C134.24 16.3713 134.494 16.709 134.676 17.0972C134.858 17.4853 134.949 17.94 134.949 18.4614C134.949 19.0125 134.84 19.5058 134.623 19.9413C134.406 20.3768 134.105 20.7456 133.72 21.0478C133.336 21.35 132.88 21.5811 132.355 21.7411C131.829 21.901 131.258 21.981 130.641 21.981C130.271 21.981 129.896 21.941 129.514 21.861C129.132 21.7811 128.767 21.6566 128.417 21.4878C128.068 21.3189 127.745 21.1026 127.448 20.8389C127.152 20.5753 126.903 20.2627 126.704 19.9013C126.616 19.7531 126.572 19.6198 126.572 19.5013C126.572 19.4243 126.591 19.3576 126.629 19.3013C126.667 19.2451 126.718 19.1902 126.783 19.1369L127.77 18.3726C127.858 18.3192 127.937 18.2926 128.007 18.2926C128.09 18.2926 128.163 18.3207 128.228 18.377C128.292 18.4333 128.363 18.5088 128.439 18.6036Z" fill="white"/>
</svg>
